<?xml version="1.0" encoding="utf-8"?>
<!-- Generator: Adobe Illustrator 21.0.2, SVG Export Plug-In . SVG Version: 6.00 Build 0)  -->
<svg version="1.1" id="Layer_1" xmlns="http://www.w3.org/2000/svg" xmlns:xlink="http://www.w3.org/1999/xlink" x="0px" y="0px"
	 viewBox="0 0 160 50" style="enable-background:new 0 0 160 50;" xml:space="preserve">
<style type="text/css">
	.st0{clip-path:url(#SVGID_2_);}
	.st1{clip-path:url(#SVGID_4_);fill:#231F20;}
</style>
<g id="Logo">
	<g>
		<defs>
			<rect id="SVGID_1_" y="18" width="160" height="14.7"/>
		</defs>
		<clipPath id="SVGID_2_">
			<use xlink:href="#SVGID_1_"  style="overflow:visible;"/>
		</clipPath>
		<g class="st0">
			<defs>
				<rect id="SVGID_3_" y="18" width="160" height="14.7"/>
			</defs>
			<clipPath id="SVGID_4_">
				<use xlink:href="#SVGID_3_"  style="overflow:visible;"/>
			</clipPath>
			<path class="st1" d="M20.6,20.4h4.3c2.6,0,4.5,1.6,4.5,4.9c0,2.9-1.5,5-4.5,5h-4.3V20.4z M22.8,28.5h2c1.3,0,2.5-0.8,2.5-3
				c0-2-0.7-3.3-2.9-3.3h-1.6V28.5z"/>
			<path class="st1" d="M33.6,20.4h2.3l3.7,10h-2.3l-0.8-2.2h-3.7L32,30.3h-2.2L33.6,20.4z M33.4,26.5H36l-1.3-3.7h0L33.4,26.5z"/>
			<polygon class="st1" points="44.8,30.3 42.3,30.3 39.1,20.4 41.3,20.4 43.5,27.4 43.6,27.4 45.8,20.4 48.1,20.4 			"/>
			<rect x="49.4" y="20.4" class="st1" width="2.2" height="10"/>
			<path class="st1" d="M53.8,20.4h4.3c2.6,0,4.5,1.6,4.5,4.9c0,2.9-1.5,5-4.5,5h-4.3V20.4z M56,28.5h2c1.3,0,2.5-0.8,2.5-3
				c0-2-0.7-3.3-2.9-3.3H56V28.5z"/>
			<path class="st1" d="M71.6,20.4h2.3l3.7,10h-2.3l-0.8-2.2h-3.7l-0.8,2.2h-2.2L71.6,20.4z M71.4,26.5H74l-1.3-3.7h0L71.4,26.5z"/>
			<polygon class="st1" points="78.9,20.4 81.1,20.4 81.1,28.5 85.9,28.5 85.9,30.3 78.9,30.3 			"/>
			<polygon class="st1" points="87.4,20.4 89.6,20.4 89.6,28.5 94.5,28.5 94.5,30.3 87.4,30.3 			"/>
			<rect x="95.9" y="20.4" class="st1" width="2.2" height="10"/>
			<path class="st1" d="M101.9,27c0,1.3,1,1.8,2.2,1.8c0.8,0,1.9-0.2,1.9-1.2c0-1.1-1.5-1.3-3-1.6c-1.5-0.4-3-1-3-2.8
				c0-2,1.9-3,3.7-3c2.1,0,4,0.9,4,3.2h-2.1c-0.1-1.2-0.9-1.5-2-1.5c-0.7,0-1.5,0.3-1.5,1.1c0,0.8,0.5,0.9,3,1.5
				c0.7,0.2,3,0.6,3,2.9c0,1.8-1.4,3.2-4.2,3.2c-2.2,0-4.3-1.1-4.2-3.6H101.9z"/>
			<path class="st1" d="M114.3,20.1c3.1,0,4.9,2.3,4.9,5.3c0,2.9-1.8,5.2-4.9,5.2c-3.1,0-4.9-2.3-4.9-5.2
				C109.4,22.4,111.2,20.1,114.3,20.1 M114.3,28.7c2,0,2.7-1.7,2.7-3.3c0-1.7-0.7-3.4-2.7-3.4c-2,0-2.7,1.7-2.7,3.4
				C111.6,27.1,112.4,28.7,114.3,28.7"/>
			<polygon class="st1" points="121,20.4 123.2,20.4 127.4,27.1 127.4,27.1 127.4,20.4 129.5,20.4 129.5,30.3 127.3,30.3 
				123.1,23.7 123.1,23.7 123.1,30.3 121,30.3 			"/>
			<rect x="136.1" y="20.4" class="st1" width="2.2" height="10"/>
			<polygon class="st1" points="140.6,20.4 142.8,20.4 146.9,27.1 146.9,27.1 146.9,20.4 149,20.4 149,30.3 146.8,30.3 142.7,23.7 
				142.6,23.7 142.6,30.3 140.6,30.3 			"/>
			<path class="st1" d="M157.8,23.7c-0.1-1-1.1-1.7-2.2-1.7c-2,0-2.7,1.7-2.7,3.4c0,1.7,0.7,3.3,2.7,3.3c1.3,0,2.1-0.9,2.3-2.2h2.1
				c-0.2,2.5-1.9,4.1-4.4,4.1c-3.1,0-4.9-2.3-4.9-5.2c0-3,1.8-5.3,4.9-5.3c2.2,0,4,1.3,4.3,3.6H157.8z"/>
			<path class="st1" d="M7.4,18.7c3.7,0,6.6,3,6.6,6.6S11,32,7.4,32c-3.7,0-6.6-3-6.6-6.6S3.7,18.7,7.4,18.7 M7.4,18
				C3.3,18,0,21.3,0,25.4s3.3,7.4,7.4,7.4s7.4-3.3,7.4-7.4S11.4,18,7.4,18 M8.6,30.2v-1.6c0.4-0.1,0.7-0.3,1-0.5
				c0.6-0.5,1-1.2,1-2.1c0-1.3-0.8-2-2-2.5v-3.1c0-0.2-0.1-0.3-0.2-0.3c-0.1-0.1-0.3,0-0.4,0.1c-0.9,1-1.6,1.9-2.2,2.7
				c-0.7-0.1-1.4-0.1-2.1-0.2c-0.2,0-0.4,0.1-0.4,0.3c0,0.2,0.1,0.4,0.3,0.4c0.6,0,1.2,0.1,1.7,0.1c-0.9,1.4-1.2,2.6-0.9,3.5
				c0.2,0.8,0.9,1.3,2,1.6c0.5,0.1,1,0.1,1.5,0.1v1.4c0,0.2,0.2,0.4,0.4,0.4C8.4,30.6,8.6,30.4,8.6,30.2 M7.8,24.1V28
				c-0.5,0.1-0.9,0-1.3,0c-0.8-0.2-1.3-0.5-1.4-1.1c-0.2-0.6-0.1-1.5,1-3.2C6.7,23.8,7.3,23.9,7.8,24.1 M9.8,26
				c0,0.6-0.2,1.1-0.7,1.5c-0.2,0.1-0.4,0.2-0.6,0.3v-3.5C9.4,24.7,9.8,25.3,9.8,26 M7.8,21.5v1.8c-0.4-0.1-0.8-0.2-1.3-0.3
				C6.9,22.6,7.3,22,7.8,21.5"/>
		</g>
	</g>
</g>
</svg>
