<?xml version="1.0" encoding="utf-8"?>
<!-- Generator: Adobe Illustrator 21.0.2, SVG Export Plug-In . SVG Version: 6.00 Build 0)  -->
<svg version="1.1" id="Layer_1" xmlns="http://www.w3.org/2000/svg" xmlns:xlink="http://www.w3.org/1999/xlink" x="0px" y="0px"
	 viewBox="0 0 160 50" style="enable-background:new 0 0 160 50;" xml:space="preserve">
<style type="text/css">
	.st0{fill:#FFFFFF;}
</style>
<g>
	<path class="st0" d="M0,18.4h3.8l3.5,9.2l3.5-9.2h3.9L9,32.2c-3.2,0-3.2,0-3.2,0L0,18.4z"/>
	<path class="st0" d="M30,26.5H19.5c0.2,1.8,1.8,3,3.8,3c1.4,0,2.8-0.6,3.5-1.8c0.9,0.5,1.9,1,2.7,1.5c-1.2,2.4-3.9,3.3-6.4,3.3
		c-3.9,0-7.1-2.9-7.1-7.2s3.2-7.1,7.1-7.1c3.9,0,7,2.8,7,7.1C30.1,25.6,30,26.2,30,26.5z M26.5,24.1c-0.3-1.9-1.7-2.9-3.5-2.9
		c-1.9,0-3.4,1.1-3.6,2.9H26.5z"/>
	<path class="st0" d="M36.7,32.2h-3.6V18.4h3.6v3.2c0.7-2.5,2.3-3.5,3.9-3.5c1,0,1.7,0.2,2.3,0.5l-0.6,3.2c-0.9-0.4-1.7-0.4-2.1-0.4
		c-2.4,0-3.5,2.2-3.5,5.8V32.2z"/>
	<path class="st0" d="M49.5,38.9h-3.8l3.2-7.8l-5.4-12.7h3.8l3.4,8.6l3.5-8.6H58L49.5,38.9z"/>
	<path class="st0" d="M73.2,35.8c3.5,0,4.4-2.6,4.2-5.5c-0.7,1.4-2.6,2.2-4.4,2.2c-3.6,0-6.9-2.8-6.9-7.1c0-4.4,3.3-7.2,6.9-7.2
		c1.8,0,3.6,0.8,4.4,2.2v-1.9h3.5v11.8c0,6.1-2.9,8.9-7.7,8.9c-2.9,0-5.4-1.6-6.6-4.1c0.8-0.4,2.1-1.1,2.9-1.5
		C70.1,34.9,71.7,35.8,73.2,35.8z M73.5,21.6c-2,0-3.7,1.5-3.7,3.7c0,2.3,1.7,3.8,3.7,3.8c1.9,0,3.7-1.4,3.7-3.8
		C77.3,22.9,75.5,21.6,73.5,21.6z"/>
	<path class="st0" d="M84.1,25.3c0-4.3,3.2-7.1,7.2-7.1c3.9,0,7.2,2.8,7.2,7.1s-3.3,7.2-7.2,7.2C87.4,32.5,84.1,29.6,84.1,25.3z
		 M94.9,25.3c0-2.2-1.6-3.6-3.6-3.6c-2,0-3.6,1.4-3.6,3.6c0,2.2,1.6,3.7,3.6,3.7C93.3,29,94.9,27.5,94.9,25.3z"/>
	<path class="st0" d="M100.8,25.3c0-4.3,3.2-7.1,7.2-7.1c3.9,0,7.2,2.8,7.2,7.1s-3.3,7.2-7.2,7.2C104.1,32.5,100.8,29.6,100.8,25.3z
		 M111.6,25.3c0-2.2-1.6-3.6-3.6-3.6c-2,0-3.6,1.4-3.6,3.6c0,2.2,1.6,3.7,3.6,3.7C110,29,111.6,27.5,111.6,25.3z"/>
	<path class="st0" d="M128.6,30.3c-0.8,1.4-2.5,2.2-4.3,2.2c-3.6,0-6.8-2.8-6.8-7.2c0-4.4,3.1-7.2,6.8-7.2c1.8,0,3.6,0.7,4.3,2.1
		v-9.3h3.6v21.3h-3.6V30.3z M124.9,21.5c-2,0-3.6,1.5-3.6,3.7c0,2.3,1.6,3.8,3.6,3.8c2,0,3.7-1.5,3.7-3.8
		C128.6,22.9,126.8,21.5,124.9,21.5z"/>
	<path class="st0" d="M138.2,28c1.3,0,2.4,0.9,2.4,2.2c0,1.3-1.1,2.2-2.4,2.2c-1.2,0-2.3-0.9-2.3-2.2C135.9,29,137,28,138.2,28z"/>
</g>
</svg>
